<svg width="122" height="22" viewBox="0 0 122 22" fill="none" xmlns="http://www.w3.org/2000/svg">
<g clip-path="url(#clip0_2013_2794)">
<path fill-rule="evenodd" clip-rule="evenodd" d="M0 7.67442V15.8605H2.5523C2.82043 15.8605 3.08594 15.9134 3.33369 16.0163C3.58138 16.1191 3.80652 16.2698 3.99607 16.4599C4.18569 16.6499 4.33611 16.8755 4.43874 17.1238C4.5413 17.3721 4.59414 17.6382 4.59414 17.907V20.4651H10.7197L18.3766 12.7907V4.60465H15.8243C15.5561 4.60465 15.2906 4.55172 15.0429 4.44888C14.7952 4.34603 14.5701 4.19528 14.3805 4.00524C14.1909 3.81521 14.0405 3.58959 13.9378 3.3413C13.8353 3.09302 13.7824 2.8269 13.7824 2.55814V0H7.6569L0 7.67442ZM8.67782 15.3488H5.1046V9.72093L9.69874 5.11628H13.272V10.7442L8.67782 15.3488Z" fill="#0004E8"/>
<path d="M117.696 6.26538C118.985 6.26538 120.022 6.66445 120.806 7.46259C121.602 8.24809 122 9.35029 122 10.7692V16.9454H119.346V11.1303C119.346 10.3068 119.137 9.67968 118.72 9.24894C118.303 8.80551 117.734 8.58382 117.013 8.58382C116.293 8.58382 115.718 8.80551 115.288 9.24894C114.871 9.67968 114.663 10.3068 114.663 11.1303V16.9454H112.008V11.1303C112.008 10.3068 111.799 9.67968 111.382 9.24894C110.965 8.80551 110.396 8.58382 109.676 8.58382C108.943 8.58382 108.362 8.80551 107.932 9.24894C107.515 9.67968 107.306 10.3068 107.306 11.1303V16.9454H104.652V6.41739H107.306V7.69062C107.647 7.24725 108.083 6.89883 108.614 6.64547C109.158 6.39206 109.752 6.26538 110.396 6.26538C111.218 6.26538 111.951 6.44276 112.596 6.79747C113.241 7.13955 113.74 7.63363 114.093 8.27976C114.435 7.67164 114.928 7.18386 115.572 6.81646C116.23 6.44906 116.938 6.26538 117.696 6.26538Z" fill="#000150"/>
<path d="M102.696 6.41724V16.9452H100.023V15.6149C99.6817 16.071 99.2325 16.4321 98.6766 16.6981C98.1329 16.9515 97.5388 17.0782 96.894 17.0782C96.0727 17.0782 95.3458 16.9072 94.7139 16.5651C94.0819 16.2104 93.5827 15.6973 93.2162 15.0258C92.8619 14.3417 92.6853 13.5309 92.6853 12.5934V6.41724H95.3397V12.2133C95.3397 13.0495 95.548 13.6956 95.965 14.1517C96.3826 14.5951 96.9512 14.8168 97.6715 14.8168C98.405 14.8168 98.9798 14.5951 99.3968 14.1517C99.8144 13.6956 100.023 13.0495 100.023 12.2133V6.41724H102.696Z" fill="#000150"/>
<path d="M87.1315 17.1164C86.2719 17.1164 85.5006 16.9643 84.8181 16.6603C84.1356 16.3436 83.5919 15.9191 83.1877 15.387C82.7956 14.8549 82.5807 14.2658 82.543 13.6197H85.2162C85.2668 14.0251 85.4628 14.3609 85.8043 14.6269C86.158 14.893 86.594 15.026 87.1121 15.026C87.618 15.026 88.01 14.9246 88.2877 14.7219C88.5786 14.5192 88.7241 14.2595 88.7241 13.9428C88.7241 13.6007 88.547 13.3473 88.1932 13.1826C87.8517 13.0053 87.302 12.8152 86.5434 12.6125C85.7599 12.4225 85.1152 12.2261 84.6098 12.0234C84.1167 11.8207 83.6869 11.5103 83.3204 11.0923C82.9661 10.6742 82.7895 10.1104 82.7895 9.40093C82.7895 8.81819 82.9539 8.2861 83.2826 7.80465C83.6236 7.32321 84.1039 6.94317 84.7231 6.66444C85.3556 6.38571 86.0947 6.24634 86.9416 6.24634C88.1932 6.24634 89.1917 6.56309 89.9375 7.19653C90.6833 7.81734 91.0942 8.65979 91.1697 9.72403H88.6292C88.5914 9.30592 88.4143 8.97654 88.0983 8.73582C87.7951 8.48246 87.3842 8.35573 86.866 8.35573C86.3857 8.35573 86.0125 8.44444 85.7471 8.62183C85.4944 8.79916 85.3678 9.04622 85.3678 9.36292C85.3678 9.71768 85.545 9.99007 85.8987 10.1801C86.253 10.3575 86.8027 10.5411 87.5485 10.7312C88.3066 10.9212 88.9324 11.1176 89.4255 11.3203C89.9186 11.523 90.3418 11.8397 90.696 12.2704C91.0625 12.6886 91.2519 13.246 91.2647 13.9428C91.2647 14.5509 91.0942 15.0957 90.7527 15.5771C90.4239 16.0585 89.9436 16.4386 89.3117 16.7173C88.6925 16.9834 87.9656 17.1164 87.1315 17.1164Z" fill="#000150"/>
<path d="M73.5798 7.93768C73.9213 7.45624 74.3889 7.05717 74.983 6.74047C75.5895 6.41108 76.2786 6.24634 77.0494 6.24634C77.9468 6.24634 78.7559 6.46808 79.4766 6.91151C80.2096 7.35488 80.7844 7.98833 81.202 8.81185C81.6318 9.62267 81.8462 10.5665 81.8462 11.6433C81.8462 12.7202 81.6318 13.6767 81.202 14.5129C80.7844 15.3364 80.2096 15.9762 79.4766 16.4322C78.7559 16.8883 77.9468 17.1164 77.0494 17.1164C76.2786 17.1164 75.5961 16.958 75.0019 16.6413C74.4205 16.3245 73.9463 15.9255 73.5798 15.4441V21.9623H70.9254V6.41738H73.5798V7.93768ZM79.1351 11.6433C79.1351 11.0099 79.0024 10.4651 78.737 10.0091C78.4843 9.5403 78.1428 9.18559 77.713 8.94487C77.2959 8.70415 76.8411 8.58381 76.348 8.58381C75.8677 8.58381 75.4129 8.71049 74.983 8.96385C74.5655 9.20457 74.2245 9.55928 73.9591 10.028C73.7064 10.4968 73.5798 11.0479 73.5798 11.6814C73.5798 12.3148 73.7064 12.8659 73.9591 13.3347C74.2245 13.8034 74.5655 14.1645 74.983 14.4179C75.4129 14.6586 75.8677 14.779 76.348 14.779C76.8411 14.779 77.2959 14.6522 77.713 14.3989C78.1428 14.1455 78.4843 13.7844 78.737 13.3157C79.0024 12.8469 79.1351 12.2895 79.1351 11.6433Z" fill="#000150"/>
<path d="M67.6579 5.16321C67.1904 5.16321 66.7988 5.01751 66.4829 4.72612C66.1791 4.42207 66.0275 4.04833 66.0275 3.60492C66.0275 3.1615 66.1791 2.7941 66.4829 2.50272C66.7988 2.19866 67.1904 2.04663 67.6579 2.04663C68.126 2.04663 68.5114 2.19866 68.8146 2.50272C69.1306 2.7941 69.2889 3.1615 69.2889 3.60492C69.2889 4.04833 69.1306 4.42207 68.8146 4.72612C68.5114 5.01751 68.126 5.16321 67.6579 5.16321ZM68.9662 6.41742V16.9454H66.3119V6.41742H68.9662Z" fill="#000150"/>
<path d="M59.5488 17.1164C58.5375 17.1164 57.6279 16.8946 56.8188 16.4513C56.0097 15.9952 55.3717 15.3554 54.9036 14.5319C54.4487 13.7084 54.2211 12.7582 54.2211 11.6814C54.2211 10.6045 54.4549 9.65434 54.9225 8.83083C55.4028 8.00736 56.0541 7.37391 56.8755 6.93049C57.6973 6.47442 58.6136 6.24634 59.6248 6.24634C60.636 6.24634 61.5523 6.47442 62.3742 6.93049C63.1955 7.37391 63.8402 8.00736 64.3078 8.83083C64.7881 9.65434 65.0285 10.6045 65.0285 11.6814C65.0285 12.7582 64.782 13.7084 64.2889 14.5319C63.8085 15.3554 63.1516 15.9952 62.317 16.4513C61.4957 16.8946 60.5727 17.1164 59.5488 17.1164ZM59.5488 14.7979C60.0291 14.7979 60.4778 14.6839 60.8954 14.4559C61.3252 14.2151 61.6661 13.8604 61.9188 13.3917C62.172 12.9229 62.2981 12.3528 62.2981 11.6814C62.2981 10.6805 62.0327 9.91404 61.5018 9.38195C60.9837 8.83717 60.3451 8.56478 59.587 8.56478C58.8285 8.56478 58.1904 8.83717 57.6718 9.38195C57.1664 9.91404 56.9138 10.6805 56.9138 11.6814C56.9138 12.6822 57.1598 13.455 57.6529 13.9998C58.1588 14.5319 58.7907 14.7979 59.5488 14.7979Z" fill="#000150"/>
<path d="M48.1218 17.1164C47.1106 17.1164 46.2005 16.8946 45.3915 16.4513C44.5826 15.9952 43.9442 15.3554 43.4766 14.5319C43.0215 13.7084 42.794 12.7582 42.794 11.6814C42.794 10.6045 43.0279 9.65434 43.4955 8.83083C43.9758 8.00736 44.6268 7.37391 45.4484 6.93049C46.2701 6.47442 47.1864 6.24634 48.1977 6.24634C49.2089 6.24634 50.1253 6.47442 50.9469 6.93049C51.7683 7.37391 52.413 8.00736 52.8806 8.83083C53.361 9.65434 53.6014 10.6045 53.6014 11.6814C53.6014 12.7582 53.3548 13.7084 52.8617 14.5319C52.3814 15.3554 51.7244 15.9952 50.89 16.4513C50.0684 16.8946 49.1457 17.1164 48.1218 17.1164ZM48.1218 14.7979C48.6021 14.7979 49.0508 14.6839 49.468 14.4559C49.8977 14.2151 50.239 13.8604 50.4918 13.3917C50.7446 12.9229 50.871 12.3528 50.871 11.6814C50.871 10.6805 50.6056 9.91404 50.0747 9.38195C49.5564 8.83717 48.9181 8.56478 48.1597 8.56478C47.4013 8.56478 46.763 8.83717 46.2447 9.38195C45.7392 9.91404 45.4863 10.6805 45.4863 11.6814C45.4863 12.6822 45.7328 13.455 46.2258 13.9998C46.7314 14.5319 47.3634 14.7979 48.1218 14.7979Z" fill="#000150"/>
<path d="M36.6946 17.1164C35.6834 17.1164 34.7734 16.8946 33.9644 16.4513C33.1554 15.9952 32.5171 15.3554 32.0494 14.5319C31.5944 13.7084 31.3669 12.7582 31.3669 11.6814C31.3669 10.6045 31.6007 9.65434 32.0684 8.83083C32.5487 8.00736 33.1997 7.37391 34.0213 6.93049C34.8428 6.47442 35.7593 6.24634 36.7705 6.24634C37.7817 6.24634 38.6981 6.47442 39.5197 6.93049C40.3413 7.37391 40.9859 8.00736 41.4536 8.83083C41.934 9.65434 42.1741 10.6045 42.1741 11.6814C42.1741 12.7582 41.9276 13.7084 41.4347 14.5319C40.9543 15.3554 40.2971 15.9952 39.4628 16.4513C38.6412 16.8946 37.7185 17.1164 36.6946 17.1164ZM36.6946 14.7979C37.175 14.7979 37.6237 14.6839 38.0408 14.4559C38.4706 14.2151 38.8119 13.8604 39.0647 13.3917C39.3174 12.9229 39.4439 12.3528 39.4439 11.6814C39.4439 10.6805 39.1784 9.91404 38.6475 9.38195C38.1293 8.83717 37.491 8.56478 36.7326 8.56478C35.9742 8.56478 35.3358 8.83717 34.8176 9.38195C34.312 9.91404 34.0592 10.6805 34.0592 11.6814C34.0592 12.6822 34.3057 13.455 34.7986 13.9998C35.3043 14.5319 35.9363 14.7979 36.6946 14.7979Z" fill="#000150"/>
<path d="M26.646 14.836H31.0069V16.9453H23.9916V3.68091H26.646V14.836Z" fill="#000150"/>
<path d="M43.4944 18.3595C44.1668 20.3637 46.0566 21.8073 48.2828 21.8073H48.5598C51.3492 21.8073 53.6106 19.5408 53.6106 16.745V16.459H50.8723V16.745C50.8723 18.0251 49.8369 19.0628 48.5598 19.0628H48.2828C47.6319 19.0628 47.0438 18.7933 46.6236 18.3595H43.4944Z" fill="#000150"/>
</g>
<defs>
<clipPath id="clip0_2013_2794">
<rect width="122" height="22" fill="white"/>
</clipPath>
</defs>
</svg>
